HIERARCHY
ROOT Hips
{
 OFFSET 0.000000 0.000000 0.000000
 CHANNELS 6 Xposition Yposition Zposition Yrotation Xrotation Zrotation
 JOINT Chest
 {
  OFFSET 0.000000 9.585900 0.002600
  CHANNELS 3 Yrotation Xrotation Zrotation
  JOINT Chest2
  {
   OFFSET 0.000000 9.601200 -0.005300
   CHANNELS 3 Yrotation Xrotation Zrotation
   JOINT Chest3
   {
    OFFSET 0.000000 9.561800 0.000000
    CHANNELS 3 Yrotation Xrotation Zrotation
    JOINT Chest4
    {
     OFFSET 0.000000 9.552100 0.000000
     CHANNELS 3 Yrotation Xrotation Zrotation
     JOINT Neck
     {
      OFFSET 0.000000 14.453000 0.000000
      CHANNELS 3 Yrotation Xrotation Zrotation
      JOINT Head
      {
       OFFSET 0.000000 8.936500 -0.011300
       CHANNELS 3 Yrotation Xrotation Zrotation
       End Site
       {
        OFFSET 0.000000 17.073600 -0.006000
       }
      }
     }
     JOINT RightCollar
     {
      OFFSET -2.921100 9.558500 0.000000
      CHANNELS 3 Yrotation Xrotation Zrotation
      JOINT RightShoulder
      {
       OFFSET -13.519700 0.000000 0.000000
       CHANNELS 3 Yrotation Xrotation Zrotation
       JOINT RightElbow
       {
        OFFSET 0.000000 -29.696600 0.000000
        CHANNELS 3 Yrotation Xrotation Zrotation
        JOINT RightWrist
        {
         OFFSET 0.000000 -24.004700 0.000000
         CHANNELS 3 Yrotation Xrotation Zrotation
         End Site
         {
          OFFSET 0.000000 -17.728500 0.000000
         }
        }
       }
      }
     }
     JOINT LeftCollar
     {
      OFFSET 2.921100 9.558500 0.000000
      CHANNELS 3 Yrotation Xrotation Zrotation
      JOINT LeftShoulder
      {
       OFFSET 13.519700 0.000000 0.000000
       CHANNELS 3 Yrotation Xrotation Zrotation
       JOINT LeftElbow
       {
        OFFSET 0.000000 -29.696600 0.000000
        CHANNELS 3 Yrotation Xrotation Zrotation
        JOINT LeftWrist
        {
         OFFSET 0.000000 -24.004700 0.000000
         CHANNELS 3 Yrotation Xrotation Zrotation
         End Site
         {
          OFFSET 0.000000 -17.728500 0.000000
         }
        }
       }
      }
     }
    }
   }
  }
 }
 JOINT RightHip
 {
  OFFSET -7.771700 -0.012900 -0.001300
  CHANNELS 3 Yrotation Xrotation Zrotation
  JOINT RightKnee
  {
   OFFSET 0.000000 -40.869800 0.001200
   CHANNELS 3 Yrotation Xrotation Zrotation
   JOINT RightAnkle
   {
    OFFSET 0.000000 -39.717900 0.002100
    CHANNELS 3 Yrotation Xrotation Zrotation
    JOINT RightToe
    {
     OFFSET 0.000000 -4.965400 11.033500
     CHANNELS 3 Yrotation Xrotation Zrotation
     End Site
     {
      OFFSET 0.000000 -1.423100 5.872300
     }
    }
   }
  }
 }
 JOINT LeftHip
 {
  OFFSET 7.771700 -0.012900 -0.001300
  CHANNELS 3 Yrotation Xrotation Zrotation
  JOINT LeftKnee
  {
   OFFSET 0.000000 -40.869800 0.001200
   CHANNELS 3 Yrotation Xrotation Zrotation
   JOINT LeftAnkle
   {
    OFFSET 0.000000 -39.717900 0.002100
    CHANNELS 3 Yrotation Xrotation Zrotation
    JOINT LeftToe
    {
     OFFSET 0.000000 -4.965400 11.033500
     CHANNELS 3 Yrotation Xrotation Zrotation
     End Site
     {
      OFFSET 0.000000 -1.423100 5.872300
     }
    }
   }
  }
 }
}
MOTION
Frames: 12
Frame Time: 0.008333
0.000000 85.388000 0.000000 0.000000 -5.767877 0.000000 0.000000 11.653817 0.000000 0.000000 -5.885947 0.000000 0.000000 -0.000000 0.000000 0.000000 -0.000000 0.000000 0.000000 12.528835 0.000000 0.000000 0.711642 0.000000 0.000000 -0.000000 0.000000 0.000000 0.000000 -90.000000 0.000000 -2.309062 0.000000 0.000000 2.309062 0.000000 0.000000 -0.000000 0.000000 0.000000 -0.000000 90.000000 0.000000 -2.309062 0.000000 0.000000 2.309062 0.000000 0.000000 8.520406 0.000000 0.000000 1.905762 0.000000 -0.000000 -4.658285 0.000000 0.000000 -0.000000 0.000000 0.000000 8.520406 0.000000 0.000000 1.905762 0.000000 -0.000000 -4.658285 0.000000 0.000000 -0.000000 0.000000
-59.114317 57.767506 11.517736 179.586120 -49.696962 -3.562132 3.627188 21.366334 1.875381 1.940653 12.237990 0.915369 2.471603 15.291899 1.217899 1.940594 12.237968 0.915334 3.288426 15.768355 5.108091 4.280858 -6.549219 8.325731 2.181949 3.703376 0.266933 -3.907277 -15.635834 -6.092138 -6.785162 -72.201276 48.409253 18.763830 19.932438 -21.339386 -10.934666 0.059866 -0.685676 25.030259 -39.263084 7.582099 117.302005 -48.764377 -131.484389 7.251137 -17.881025 0.728707 5.105531 -21.597276 -3.109529 -33.281646 75.132376 -38.082349 6.538739 -17.072199 12.778406 0.012537 -0.043844 -0.036763 -7.783418 -19.540885 4.719705 87.557451 81.316980 86.641259 0.550831 -21.666504 -18.300117 0.008409 0.063627 -0.002949
-59.109525 57.774490 11.518374 179.547229 -49.760763 -3.519458 3.674110 21.414880 1.848431 1.987731 12.229277 0.861048 2.508590 15.299273 1.181489 1.970827 12.243779 0.885618 3.635306 15.861802 5.225008 4.887876 -6.388194 8.417774 2.241970 3.677522 0.311492 -3.874554 -15.563945 -6.045216 -6.516736 -72.335301 47.981207 18.797182 19.968622 -21.312867 -10.917191 0.182683 -0.700864 25.189897 -39.204854 7.256743 117.187307 -48.733508 -131.438309 7.311755 -17.997577 0.788341 5.099075 -21.537995 -3.138204 -33.207744 75.129219 -37.980217 6.562126 -17.052517 12.728459 0.027106 -0.046116 -0.036224 -7.802919 -19.468467 4.701327 87.483822 81.302596 86.528247 0.553293 -21.652263 -18.301894 0.014364 0.056830 -0.012745
-59.101182 57.778063 11.522909 179.543447 -49.797255 -3.518349 3.703907 21.436032 1.838259 2.032233 12.215376 0.808273 2.542402 15.304984 1.147096 1.998465 12.248295 0.857492 3.971811 15.981367 5.335003 5.478691 -6.178080 8.501409 2.300686 3.653890 0.353148 -3.834631 -15.487075 -6.009138 -6.253672 -72.484973 47.560820 18.828630 20.015700 -21.279966 -10.897050 0.307255 -0.722982 25.362694 -39.127271 6.907929 117.039518 -48.702101 -131.365901 7.385298 -18.114581 0.838149 5.079630 -21.504938 -3.147546 -33.156870 75.129299 -37.900022 6.573783 -17.038542 12.691627 0.031484 -0.048796 -0.031730 -7.820897 -19.426709 4.695450 87.372024 81.299411 86.424971 0.559776 -21.636760 -18.328535 0.011876 0.050181 -0.007231
-59.094928 57.782345 11.526903 179.546513 -49.841977 -3.505388 3.745500 21.447254 1.794060 2.060884 12.212921 0.786461 2.572628 15.309298 1.115140 2.023176 12.251684 0.831321 4.294419 16.127283 5.435816 6.047488 -5.918254 8.574064 2.357957 3.628510 0.393009 -3.791406 -15.401572 -5.992225 -6.004851 -72.644901 47.162515 18.854749 20.065696 -21.243400 -10.876717 0.431080 -0.755878 25.547419 -39.030959 6.546013 116.846687 -48.666753 -131.258348 7.472290 -18.231764 0.881826 5.077292 -21.459453 -3.164080 -33.141637 75.127474 -37.871036 6.565383 -17.028794 12.698148 0.033294 -0.054204 -0.027657 -7.836968 -19.377511 4.674782 87.301732 81.289739 86.345832 0.562270 -21.627953 -18.342310 0.013556 0.049658 -0.006460
-59.090381 57.786602 11.530568 179.551173 -49.889708 -3.481106 3.824962 21.422262 1.730190 2.056201 12.243524 0.798037 2.599758 15.312227 1.086035 2.045420 12.253978 0.807550 4.598873 16.296165 5.526518 6.586319 -5.614882 8.635725 2.407022 3.598888 0.425879 -3.745830 -15.310971 -5.988155 -5.759515 -72.803555 46.777581 18.874958 20.110876 -21.205055 -10.863301 0.553016 -0.803488 25.739426 -38.917912 6.180832 116.601112 -48.626140 -131.107982 7.565797 -18.348256 0.918063 5.051231 -21.413140 -3.203029 -33.040525 75.140546 -37.777263 6.580398 -17.023022 12.724672 0.026748 -0.059853 -0.056429 -7.877256 -19.319997 4.643796 87.232194 81.272265 86.240847 0.564627 -21.627241 -18.351538 0.014456 0.056960 -0.011296
-59.085695 57.790183 11.534259 179.546101 -49.935646 -3.449889 3.891765 21.413472 1.689745 2.066329 12.254858 0.785961 2.625295 15.313361 1.059711 2.066337 12.254884 0.786057 4.880663 16.485291 5.608065 7.086266 -5.273032 8.689942 2.447757 3.572882 0.453028 -3.700738 -15.229031 -5.990527 -5.508254 -72.952219 46.397935 18.887973 20.148014 -21.167884 -10.859167 0.669397 -0.862479 25.929415 -38.787183 5.820073 116.298663 -48.580599 -130.904600 7.658969 -18.461008 0.939100 4.994346 -21.382710 -3.258808 -32.908182 75.166437 -37.636685 6.626180 -17.004363 12.659652 0.019264 -0.071695 -0.043077 -7.968151 -19.255131 4.623651 87.208440 81.246782 86.123134 0.586592 -21.636115 -18.357538 0.006259 0.071088 -0.013313
-59.081057 57.792704 11.538052 179.557731 -49.975971 -3.432463 3.935654 21.411781 1.657682 2.051812 12.275223 0.789942 2.675879 15.292545 1.002473 2.086715 12.253772 0.766371 5.136857 16.693620 5.681072 7.541764 -4.894629 8.738954 2.482972 3.559073 0.479175 -3.663304 -15.165456 -5.999406 -5.253289 -73.085267 46.028981 18.894055 20.174032 -21.132413 -10.865033 0.778366 -0.926154 26.109054 -38.638023 5.468803 115.945935 -48.535864 -130.647759 7.750995 -18.564950 0.945778 4.959501 -21.350646 -3.297079 -32.843061 75.183136 -37.568930 6.639670 -16.990144 12.647103 0.014131 -0.081130 -0.045946 -8.015461 -19.208986 4.596356 87.197616 81.230792 86.071030 0.595784 -21.636886 -18.362455 0.000547 0.077212 -0.017819
-59.077031 57.794405 11.541594 179.576553 -50.012893 -3.419475 3.945255 21.429539 1.628509 2.115427 12.240704 0.747143 2.688723 15.298744 0.999161 2.107228 12.250907 0.749171 5.366022 16.918927 5.744893 7.950418 -4.483700 8.781853 2.508294 3.557526 0.503608 -3.637769 -15.116675 -6.014273 -5.019696 -73.202522 45.699370 18.899351 20.194921 -21.095789 -10.881695 0.884488 -0.989782 26.277049 -38.474800 5.124097 115.555623 -48.498374 -130.348834 7.845460 -18.658333 0.945680 4.929189 -21.318925 -3.331944 -32.788231 75.196323 -37.511669 6.632325 -16.972457 12.645966 0.026503 -0.089768 -0.047580 -8.066097 -19.168122 4.566157 87.171245 81.208172 86.008829 0.596139 -21.632939 -18.365448 -0.001867 0.081627 -0.023996
-59.071735 57.795159 11.545149 179.596953 -50.044510 -3.419052 4.005472 21.406746 1.614471 2.140433 12.235998 0.728365 2.700004 15.303597 0.997366 2.127222 12.246914 0.734737 5.568712 17.157108 5.800202 8.312991 -4.047905 8.819589 2.520799 3.564173 0.522341 -3.620883 -15.075989 -6.030419 -4.826037 -73.306952 45.425448 18.908599 20.221047 -21.054214 -10.905430 0.992108 -1.049559 26.436939 -38.299752 4.779750 115.129112 -48.468124 -130.011210 7.941416 -18.742833 0.944564 4.913044 -21.288406 -3.348691 -32.767660 75.200536 -37.490196 6.630188 -16.957761 12.675159 0.028172 -0.097963 -0.064171 -8.096011 -19.135096 4.545753 87.144605 81.201039 85.974940 0.599476 -21.629353 -18.379848 0.000471 0.081825 -0.017418
-59.065519 57.793533 11.549939 179.598403 -50.059746 -3.414548 4.083020 21.363912 1.615977 2.146121 12.242107 0.722676 2.723356 15.297522 0.982795 2.146130 12.242080 0.722651 5.746815 17.402217 5.848328 8.632260 -3.598365 8.853866 2.519293 3.576613 0.532429 -3.609612 -15.043905 -6.040455 -4.653915 -73.396249 45.186852 18.919930 20.249787 -21.008825 -10.935006 1.100784 -1.106169 26.593466 -38.112024 4.436338 114.665164 -48.444957 -129.633999 8.039455 -18.818244 0.944960 4.872233 -21.282799 -3.364211 -32.692962 75.213944 -37.416833 6.647795 -16.946839 12.651156 0.030695 -0.098705 -0.054255 -8.118584 -19.117465 4.540610 87.135377 81.181233 85.954905 0.592902 -21.629216 -18.384639 -0.000180 0.086037 -0.019913
-59.064543 57.793013 11.552601 179.577928 -50.086982 -3.367783 4.149682 21.345648 1.594208 2.165657 12.236304 0.713059 2.747596 15.290296 0.971320 2.165666 12.236325 0.713050 5.901929 17.648340 5.890302 8.910807 -3.146219 8.885688 2.502482 3.593240 0.536474 -3.605754 -15.020295 -6.041323 -4.486503 -73.466958 44.970041 18.928959 20.275768 -20.969699 -10.972832 1.210021 -1.159588 26.750155 -37.913820 4.098693 114.162765 -48.428887 -129.215252 8.141754 -18.886371 0.947998 4.811132 -21.269984 -3.401621 -32.553442 75.237834 -37.321497 6.681256 -16.899436 12.633956 0.024134 -0.140323 -0.054520 -8.175089 -19.089068 4.518104 87.138046 81.155052 85.903931 0.576481 -21.643446 -18.401719 0.022595 0.107054 -0.019713
